<mxfile host="Electron" modified="2023-04-13T01:40:40.183Z" agent="Mozilla/5.0 (Windows NT 10.0; Win64; x64) AppleWebKit/537.36 (KHTML, like Gecko) draw.io/21.1.2 Chrome/106.0.5249.199 Electron/21.4.3 Safari/537.36" etag="KK8PgmbWv14T3DA1UPCG" version="21.1.2" type="device">
  <diagram name="Page-1" id="VJwVCK3o8yG8nXTNFM0T">
    <mxGraphModel dx="1036" dy="614" grid="1" gridSize="10" guides="1" tooltips="1" connect="1" arrows="1" fold="1" page="1" pageScale="1" pageWidth="850" pageHeight="1100" math="0" shadow="0">
      <root>
        <mxCell id="0" />
        <mxCell id="1" parent="0" />
        <mxCell id="uPGJNEd4kQlidW7YWUCL-2" value="" style="endArrow=classic;html=1;rounded=0;exitX=0.5;exitY=1;exitDx=0;exitDy=0;entryX=0.5;entryY=0;entryDx=0;entryDy=0;" parent="1" target="uPGJNEd4kQlidW7YWUCL-3" edge="1">
          <mxGeometry width="50" height="50" relative="1" as="geometry">
            <mxPoint x="420" y="40" as="sourcePoint" />
            <mxPoint x="420" y="110" as="targetPoint" />
          </mxGeometry>
        </mxCell>
        <mxCell id="uPGJNEd4kQlidW7YWUCL-3" value="Kết nối?" style="rhombus;whiteSpace=wrap;html=1;fontSize=16;" parent="1" vertex="1">
          <mxGeometry x="360" y="110" width="120" height="100" as="geometry" />
        </mxCell>
        <mxCell id="uPGJNEd4kQlidW7YWUCL-7" value="Sai" style="text;html=1;strokeColor=none;fillColor=none;align=center;verticalAlign=middle;whiteSpace=wrap;rounded=0;fontSize=16;" parent="1" vertex="1">
          <mxGeometry x="480" y="130" width="60" height="30" as="geometry" />
        </mxCell>
        <mxCell id="uPGJNEd4kQlidW7YWUCL-8" value="" style="endArrow=classic;html=1;rounded=0;exitX=0.5;exitY=1;exitDx=0;exitDy=0;" parent="1" source="uPGJNEd4kQlidW7YWUCL-3" edge="1">
          <mxGeometry width="50" height="50" relative="1" as="geometry">
            <mxPoint x="420" y="230" as="sourcePoint" />
            <mxPoint x="420" y="320" as="targetPoint" />
          </mxGeometry>
        </mxCell>
        <mxCell id="uPGJNEd4kQlidW7YWUCL-9" value="Đúng" style="text;html=1;strokeColor=none;fillColor=none;align=center;verticalAlign=middle;whiteSpace=wrap;rounded=0;fontSize=16;" parent="1" vertex="1">
          <mxGeometry x="425" y="240" width="60" height="30" as="geometry" />
        </mxCell>
        <mxCell id="uPGJNEd4kQlidW7YWUCL-10" value="" style="endArrow=none;html=1;rounded=0;fontSize=11;strokeWidth=4;" parent="1" edge="1">
          <mxGeometry width="50" height="50" relative="1" as="geometry">
            <mxPoint x="80" y="320" as="sourcePoint" />
            <mxPoint x="760" y="320" as="targetPoint" />
          </mxGeometry>
        </mxCell>
        <mxCell id="uPGJNEd4kQlidW7YWUCL-11" value="" style="endArrow=classic;html=1;rounded=0;" parent="1" edge="1">
          <mxGeometry width="50" height="50" relative="1" as="geometry">
            <mxPoint x="160" y="320" as="sourcePoint" />
            <mxPoint x="160" y="440" as="targetPoint" />
          </mxGeometry>
        </mxCell>
        <mxCell id="uPGJNEd4kQlidW7YWUCL-13" value="" style="endArrow=classic;html=1;rounded=0;" parent="1" edge="1">
          <mxGeometry width="50" height="50" relative="1" as="geometry">
            <mxPoint x="680" y="320" as="sourcePoint" />
            <mxPoint x="680" y="440" as="targetPoint" />
          </mxGeometry>
        </mxCell>
        <mxCell id="uPGJNEd4kQlidW7YWUCL-16" value="Tìm" style="rounded=1;whiteSpace=wrap;html=1;fontSize=16;" parent="1" vertex="1">
          <mxGeometry x="620" y="440" width="120" height="60" as="geometry" />
        </mxCell>
        <mxCell id="uPGJNEd4kQlidW7YWUCL-20" value="" style="endArrow=classic;html=1;rounded=0;" parent="1" edge="1">
          <mxGeometry width="50" height="50" relative="1" as="geometry">
            <mxPoint x="679.5" y="500" as="sourcePoint" />
            <mxPoint x="679.5" y="560" as="targetPoint" />
          </mxGeometry>
        </mxCell>
        <mxCell id="uPGJNEd4kQlidW7YWUCL-22" value="Kiểm tra&lt;br style=&quot;font-size: 16px;&quot;&gt;định dạng?" style="rhombus;whiteSpace=wrap;html=1;fontSize=16;" parent="1" vertex="1">
          <mxGeometry x="615" y="700" width="130" height="120" as="geometry" />
        </mxCell>
        <mxCell id="uPGJNEd4kQlidW7YWUCL-31" value="Tồn tại?" style="rhombus;whiteSpace=wrap;html=1;fontSize=16;" parent="1" vertex="1">
          <mxGeometry x="625" y="560" width="110" height="80" as="geometry" />
        </mxCell>
        <mxCell id="uPGJNEd4kQlidW7YWUCL-32" value="" style="endArrow=none;html=1;rounded=0;" parent="1" edge="1">
          <mxGeometry width="50" height="50" relative="1" as="geometry">
            <mxPoint x="735" y="600" as="sourcePoint" />
            <mxPoint x="800" y="600" as="targetPoint" />
          </mxGeometry>
        </mxCell>
        <mxCell id="uPGJNEd4kQlidW7YWUCL-33" value="" style="endArrow=classic;html=1;rounded=0;exitX=0.5;exitY=1;exitDx=0;exitDy=0;entryX=0.5;entryY=0;entryDx=0;entryDy=0;" parent="1" source="uPGJNEd4kQlidW7YWUCL-31" target="uPGJNEd4kQlidW7YWUCL-22" edge="1">
          <mxGeometry width="50" height="50" relative="1" as="geometry">
            <mxPoint x="685" y="650" as="sourcePoint" />
            <mxPoint x="735" y="600" as="targetPoint" />
          </mxGeometry>
        </mxCell>
        <mxCell id="uPGJNEd4kQlidW7YWUCL-34" value="" style="endArrow=none;html=1;rounded=0;" parent="1" edge="1">
          <mxGeometry width="50" height="50" relative="1" as="geometry">
            <mxPoint x="745" y="760" as="sourcePoint" />
            <mxPoint x="800" y="760" as="targetPoint" />
          </mxGeometry>
        </mxCell>
        <mxCell id="uPGJNEd4kQlidW7YWUCL-35" value="" style="endArrow=none;html=1;rounded=0;exitX=0.5;exitY=1;exitDx=0;exitDy=0;" parent="1" source="uPGJNEd4kQlidW7YWUCL-55" edge="1">
          <mxGeometry width="50" height="50" relative="1" as="geometry">
            <mxPoint x="160" y="680" as="sourcePoint" />
            <mxPoint x="160" y="880" as="targetPoint" />
          </mxGeometry>
        </mxCell>
        <mxCell id="uPGJNEd4kQlidW7YWUCL-36" value="" style="ellipse;whiteSpace=wrap;html=1;aspect=fixed;" parent="1" vertex="1">
          <mxGeometry x="380" y="840" width="80" height="80" as="geometry" />
        </mxCell>
        <mxCell id="uPGJNEd4kQlidW7YWUCL-37" value="" style="ellipse;whiteSpace=wrap;html=1;aspect=fixed;fillColor=#000000;fillStyle=auto;" parent="1" vertex="1">
          <mxGeometry x="400" y="860" width="40" height="40" as="geometry" />
        </mxCell>
        <mxCell id="uPGJNEd4kQlidW7YWUCL-40" value="" style="endArrow=none;html=1;rounded=0;exitX=0.5;exitY=1;exitDx=0;exitDy=0;" parent="1" edge="1">
          <mxGeometry width="50" height="50" relative="1" as="geometry">
            <mxPoint x="679.5" y="820" as="sourcePoint" />
            <mxPoint x="680" y="880" as="targetPoint" />
          </mxGeometry>
        </mxCell>
        <mxCell id="uPGJNEd4kQlidW7YWUCL-42" value="" style="endArrow=none;html=1;rounded=0;" parent="1" edge="1">
          <mxGeometry width="50" height="50" relative="1" as="geometry">
            <mxPoint x="800" y="760" as="sourcePoint" />
            <mxPoint x="800" y="480" as="targetPoint" />
          </mxGeometry>
        </mxCell>
        <mxCell id="uPGJNEd4kQlidW7YWUCL-43" value="" style="endArrow=classic;html=1;rounded=0;entryX=0.993;entryY=0.65;entryDx=0;entryDy=0;entryPerimeter=0;" parent="1" target="uPGJNEd4kQlidW7YWUCL-16" edge="1">
          <mxGeometry width="50" height="50" relative="1" as="geometry">
            <mxPoint x="800" y="480" as="sourcePoint" />
            <mxPoint x="450" y="570" as="targetPoint" />
          </mxGeometry>
        </mxCell>
        <mxCell id="uPGJNEd4kQlidW7YWUCL-45" value="Đúng" style="text;html=1;strokeColor=none;fillColor=none;align=center;verticalAlign=middle;whiteSpace=wrap;rounded=0;fontSize=16;" parent="1" vertex="1">
          <mxGeometry x="685" y="820" width="60" height="30" as="geometry" />
        </mxCell>
        <mxCell id="uPGJNEd4kQlidW7YWUCL-46" value="Sai" style="text;html=1;strokeColor=none;fillColor=none;align=center;verticalAlign=middle;whiteSpace=wrap;rounded=0;fontSize=16;" parent="1" vertex="1">
          <mxGeometry x="735" y="760" width="60" height="30" as="geometry" />
        </mxCell>
        <mxCell id="uPGJNEd4kQlidW7YWUCL-47" value="Đúng" style="text;html=1;strokeColor=none;fillColor=none;align=center;verticalAlign=middle;whiteSpace=wrap;rounded=0;fontSize=16;" parent="1" vertex="1">
          <mxGeometry x="685" y="640" width="60" height="30" as="geometry" />
        </mxCell>
        <mxCell id="uPGJNEd4kQlidW7YWUCL-48" value="Sai" style="text;html=1;strokeColor=none;fillColor=none;align=center;verticalAlign=middle;whiteSpace=wrap;rounded=0;fontSize=16;" parent="1" vertex="1">
          <mxGeometry x="720" y="560" width="60" height="30" as="geometry" />
        </mxCell>
        <mxCell id="uPGJNEd4kQlidW7YWUCL-52" value="" style="ellipse;whiteSpace=wrap;html=1;aspect=fixed;fillColor=#000000;fillStyle=auto;" parent="1" vertex="1">
          <mxGeometry x="400" width="40" height="40" as="geometry" />
        </mxCell>
        <mxCell id="uPGJNEd4kQlidW7YWUCL-53" value="" style="endArrow=classic;html=1;rounded=0;entryX=0;entryY=0.5;entryDx=0;entryDy=0;" parent="1" target="uPGJNEd4kQlidW7YWUCL-36" edge="1">
          <mxGeometry width="50" height="50" relative="1" as="geometry">
            <mxPoint x="160" y="880" as="sourcePoint" />
            <mxPoint x="450" y="680" as="targetPoint" />
          </mxGeometry>
        </mxCell>
        <mxCell id="uPGJNEd4kQlidW7YWUCL-54" value="" style="endArrow=classic;html=1;rounded=0;entryX=1;entryY=0.5;entryDx=0;entryDy=0;" parent="1" target="uPGJNEd4kQlidW7YWUCL-36" edge="1">
          <mxGeometry width="50" height="50" relative="1" as="geometry">
            <mxPoint x="680" y="880" as="sourcePoint" />
            <mxPoint x="450" y="680" as="targetPoint" />
          </mxGeometry>
        </mxCell>
        <mxCell id="uPGJNEd4kQlidW7YWUCL-55" value="Xem" style="rounded=1;whiteSpace=wrap;html=1;fontSize=16;" parent="1" vertex="1">
          <mxGeometry x="100" y="440" width="120" height="60" as="geometry" />
        </mxCell>
        <mxCell id="W9Qwxn4QEFzgr8RbMRUc-1" value="Kết thúc" style="rounded=1;whiteSpace=wrap;html=1;fontSize=16;" vertex="1" parent="1">
          <mxGeometry x="600" y="130" width="120" height="60" as="geometry" />
        </mxCell>
        <mxCell id="W9Qwxn4QEFzgr8RbMRUc-2" value="" style="endArrow=classic;html=1;rounded=0;exitX=0;exitY=1;exitDx=0;exitDy=0;entryX=0;entryY=0.5;entryDx=0;entryDy=0;" edge="1" parent="1" source="uPGJNEd4kQlidW7YWUCL-7" target="W9Qwxn4QEFzgr8RbMRUc-1">
          <mxGeometry width="50" height="50" relative="1" as="geometry">
            <mxPoint x="400" y="340" as="sourcePoint" />
            <mxPoint x="450" y="290" as="targetPoint" />
          </mxGeometry>
        </mxCell>
      </root>
    </mxGraphModel>
  </diagram>
</mxfile>
